<svg xmlns="http://www.w3.org/2000/svg" width="1024" height="500" viewBox="0 0 1024 500">
  <rect width="1024" height="500" fill="#000000"/>

  <g transform="translate(-97.85,-76.0) scale(0.6263)">
    <!-- blue fader -->
    <rect x="290" y="566" width="106" height="194" rx="53" ry="53" fill="#208AEF"/>
    <rect x="268" y="502" width="151" height="62" rx="31" ry="31" fill="#E8E8EA"/>
    <rect x="308.5" y="528" width="70" height="10" rx="5" ry="5" fill="#8B8B8C"/>

    <!-- teal fader (tallest) -->
    <rect x="458" y="358" width="106" height="402" rx="53" ry="53" fill="#4ECDC4"/>
    <rect x="436" y="281" width="151" height="62" rx="31" ry="31" fill="#E8E8EA"/>
    <rect x="476.5" y="307" width="70" height="10" rx="5" ry="5" fill="#8B8B8C"/>

    <!-- coral fader -->
    <rect x="626" y="470" width="106" height="290" rx="53" ry="53" fill="#FF6B6B"/>
    <rect x="604" y="406" width="151" height="62" rx="31" ry="31" fill="#E8E8EA"/>
    <rect x="644.5" y="432" width="70" height="10" rx="5" ry="5" fill="#8B8B8C"/>
  </g>

  <text x="500" y="252" font-family="Helvetica, Arial, sans-serif" font-size="84" font-weight="700" fill="#ffffff">Virtual VS</text>
  <text x="502" y="312" font-family="Helvetica, Arial, sans-serif" font-size="34" font-weight="400" fill="#4ECDC4">Stems sincronizados no palco.</text>
</svg>
